<?xml version="1.0" encoding="UTF-8"?>
<svg version="1.1" xmlns="http://www.w3.org/2000/svg" width="32" height="32">
<path d="M0 0 C0.4125 1.010625 0.825 2.02125 1.25 3.0625 C2.37682315 5.76364067 3.52135595 7.77458599 5.1875 10.25 C7.8807965 14.87453624 7.92743229 19.81729016 7 25 C5.3266547 28.16762413 3.25125471 30.37437264 0 32 C-4.09157355 32.51512617 -8.23589546 32.94367269 -11.95703125 30.953125 C-14.09315687 29.18601378 -15.75449171 27.49101659 -17 25 C-17.14754174 23.21247508 -17.2211522 21.4183716 -17.25 19.625 C-17.27578125 18.66851563 -17.3015625 17.71203125 -17.328125 16.7265625 C-16.9513485 13.5957292 -16.18639185 12.23945962 -14 10 C-13.34 10 -12.68 10 -12 10 C-11.34 11.32 -10.68 12.64 -10 14 C-9.773125 12.80375 -9.54625 11.6075 -9.3125 10.375 C-8.0695871 5.38559251 -5.7320067 0 0 0 Z M-3 3 C-6.06242216 7.84060277 -7.53411505 11.29290936 -8 17 C-10.86724686 16.42655063 -11.8614515 16.1385485 -14 14 C-15.55024464 17.10048928 -15.28992015 19.57894218 -15 23 C-13.14283813 25.90809543 -13.14283813 25.90809543 -11 28 C-10.67 26.02 -10.34 24.04 -10 22 C-9.01 22 -8.02 22 -7 22 C-6.34 20.68 -5.68 19.36 -5 18 C-4.34 18 -3.68 18 -3 18 C-1.68 21.3 -0.36 24.6 1 28 C3.6098623 25.3085795 4.89718636 23.52434956 5.625 19.8125 C4.73487798 14.38275566 2.04239206 10.50841518 -1 6 C-1.66 5.01 -2.32 4.02 -3 3 Z M-5 21 C-5 22.65 -5 24.3 -5 26 C-5.99 26 -6.98 26 -8 26 C-7.67 27.32 -7.34 28.64 -7 30 C-5.35 29.67 -3.7 29.34 -2 29 C-1.7497843 26.08365871 -1.7497843 26.08365871 -2 23 C-2.99 22.34 -3.98 21.68 -5 21 Z " fill="#FFC300 " transform="translate(21,0)"/>
</svg>
