<?xml version="1.0" encoding="UTF-8"?>
<svg version="1.1" xmlns="http://www.w3.org/2000/svg" width="24" height="24">
<path d="M0 0 C3.12578143 1.6720747 5.39281175 3.7856235 7 7 C7.51512617 11.09157355 7.94367269 15.23589546 5.953125 18.95703125 C3.55501226 21.85592636 1.60351712 23.79811835 -2.171875 24.2734375 C-9.98876369 24.58137554 -9.98876369 24.58137554 -13.5625 21.625 C-17.3057723 17.59378368 -17.39037018 14.90519941 -17.359375 9.55078125 C-16.78039966 5.44131496 -15.00085071 3.78650423 -12 1 C-8.27533151 -0.86233425 -4.05504687 -0.57130829 0 0 Z M-10 7 C-11.50416548 10.00833096 -10.60839737 12.34961578 -10.0625 15.625 C-9.77052734 17.40777344 -9.77052734 17.40777344 -9.47265625 19.2265625 C-9.31667969 20.14179688 -9.16070312 21.05703125 -9 22 C-8.67 22 -8.34 22 -8 22 C-7.87625 20.7625 -7.7525 19.525 -7.625 18.25 C-7.24253695 15.1237803 -6.69450477 12.71120763 -5 10 C-5.66 9.01 -6.32 8.02 -7 7 C-7.99 7 -8.98 7 -10 7 Z M-3 13 C-2.67 13.66 -2.34 14.32 -2 15 C-1.01 14.67 -0.02 14.34 1 14 C-0.32 13.67 -1.64 13.34 -3 13 Z " fill="#C70039 " transform="translate(17,0)"/>
</svg>
